<svg xmlns="http://www.w3.org/2000/svg" width="1200" height="700" viewBox="0 0 1200 700">
  <rect width="1200" height="700" fill="#f7f7f5"/>
  <rect x="80" y="80" width="1040" height="540" rx="18" fill="#ffffff" stroke="#1f1f1f" stroke-width="3"/>
  <rect x="80" y="80" width="1040" height="56" rx="18" fill="#1f1f1f"/>
  <text x="120" y="116" font-family="Arial, Helvetica, sans-serif" font-size="20" fill="#ffffff">Extension Popup</text>

  <text x="130" y="210" font-family="Arial, Helvetica, sans-serif" font-size="28" fill="#1f1f1f">步骤 5：选择按钮开始下载</text>
  <text x="130" y="260" font-family="Arial, Helvetica, sans-serif" font-size="22" fill="#333333">根据需要选择对应按钮</text>

  <rect x="130" y="320" width="420" height="60" rx="10" fill="#111827"/>
  <text x="160" y="358" font-family="Arial, Helvetica, sans-serif" font-size="20" fill="#ffffff">下载当前页面视频</text>

  <rect x="130" y="400" width="420" height="60" rx="10" fill="#2563eb"/>
  <text x="160" y="438" font-family="Arial, Helvetica, sans-serif" font-size="20" fill="#ffffff">下载帖子图片(全量)</text>

  <rect x="130" y="480" width="420" height="60" rx="10" fill="#16a34a"/>
  <text x="160" y="518" font-family="Arial, Helvetica, sans-serif" font-size="20" fill="#ffffff">下载帖子图片(精确)</text>

  <rect x="620" y="330" width="430" height="200" rx="12" fill="#f1f5f9" stroke="#cbd5e1" stroke-width="2"/>
  <text x="650" y="370" font-family="Arial, Helvetica, sans-serif" font-size="20" fill="#475569">状态提示（示意）</text>
  <rect x="650" y="395" width="360" height="18" rx="6" fill="#e2e8f0"/>
  <rect x="650" y="420" width="320" height="18" rx="6" fill="#e2e8f0"/>
  <rect x="650" y="445" width="280" height="18" rx="6" fill="#e2e8f0"/>
</svg>
